<svg width="199" height="121" viewBox="0 0 199 121" fill="none" xmlns="http://www.w3.org/2000/svg">
<path d="M38.7999 59.8V39.3H31.3999V32.9H53.2999V39.3H45.7999V59.8H38.7999Z" fill="#1D1D1B"/>
<path d="M75.6999 59.8L74.0999 55H64.7999L63.1999 59.8H55.7999L65.9999 32.9H72.9999L83.1999 59.8H75.6999ZM69.4999 40.5L66.8999 49.2H72.0999L69.4999 40.5Z" fill="#1D1D1B"/>
<path d="M87.4999 51.1L93.4999 50C94.1999 52.4 95.6999 54.1 98.8999 54.1C101.2 54.1 103.2 53.1 103.2 52.1C103.2 50.9 102.1 50.4 99.2999 49.7L95.8999 48.8C89.9999 47.2 87.7999 44.8 87.7999 41.2C87.7999 36.2 92.1999 32.4 98.7999 32.4C105.4 32.4 109.8 36.1 109.8 41.3L103.8 42.4C103.3 40.1 102 38.4 98.7999 38.4C96.3999 38.4 94.8999 39.4 94.8999 40.5C94.8999 41.5 95.9999 42 98.3999 42.6L101.8 43.5C108.1 45.2 110.2 47.8 110.2 51.2C110.2 56.1 105.7 60 98.7999 60C91.9999 60.2 87.4999 56.2 87.4999 51.1Z" fill="#1D1D1B"/>
<path d="M123.6 59.8V39.3H115.3V32.9H138.1V39.3H130.6V59.8H123.6Z" fill="#1D1D1B"/>
<path d="M150.6 59.8V50.9001L140.5 32.8H148.7L154.1 44.3L159.5 32.8H167.8L157.6 50.9001V59.8H150.6Z" fill="#1D1D1B"/>
<path d="M72.4999 68.1C78.7999 68.1 83.3999 72.6 83.3999 78.7C83.3999 84.8 78.7999 89.4 72.5999 89.4C66.3999 89.4 61.6999 84.8 61.6999 78.8C61.5999 72.7 66.2999 68.2 72.4999 68.1ZM72.5999 73.1C69.4999 73.1 67.1999 75.4 67.0999 78.7C67.0999 81.9 69.3999 84.4 72.4999 84.4C75.5999 84.4 77.8999 82 77.8999 78.8C77.9999 75.5 75.6999 73.2 72.5999 73.1Z" fill="#1D1D1B"/>
<path d="M57.1999 75.5C55.6999 76 54.1999 76.4 52.7999 76.8C50.5999 73.5 48.4999 72.5 45.7999 73.3C43.4999 74 42.0999 76.1 42.0999 78.9C42.0999 81.4 43.6999 83.6 45.8999 84.2C48.6999 85 50.7999 83.9 52.7999 80.7C54.1999 81.1 55.6999 81.6 57.1999 82C56.7999 84.2 55.7999 86 54.0999 87.3C49.0999 91.2 39.2999 89.9 36.9999 81.7C35.7999 77.3 37.3999 72.6 40.8999 70.1C44.4999 67.5 49.9999 67.4 53.5999 69.9C55.5999 71.2 56.6999 73.1 57.1999 75.5Z" fill="#1D1D1B"/>
<path d="M141.9 84.2V89H127.7V68.6H141.9V73.4H133V76.2H140.8V81.1H133V84.2H141.9Z" fill="#1D1D1B"/>
<path d="M153.7 76.3H161.4V81.1H153.6V84.2H162.5V89H148.3V68.6H162.5V73.3H153.7V76.3Z" fill="#1D1D1B"/>
<path d="M94.0999 89H88.7999V68.6H103V73.3H94.0999V76.2H101.8V81.1H94.0999V89Z" fill="#1D1D1B"/>
<path d="M113.5 81.1V89H108.3V68.6H122.4V73.3H113.6V76.2H121.3V81.1H113.5Z" fill="#1D1D1B"/>
<path d="M195.4 20.3C166.1 7 132.9 0 99.5999 0C66.1999 0 33.0999 7 3.79994 20.3C1.89994 21.2 0.699935 23.1 0.999935 25C4.69994 46.4 8.59993 72.4 12.6999 102.1C12.8999 103.7 14.0999 105.1 15.6999 105.7C42.1999 115.8 70.3999 121 99.5999 121C128.4 121 157.4 115.7 183.5 105.7C185.2 105.1 186.3 103.7 186.5 102.1C190.6 72.4 194.5 46.5 198.2 25C198.5 23.1 197.3 21.2 195.4 20.3ZM190.9 25.4C187.3 46.4 183.5 71.5 179.6 100.2C154.6 109.6 127 114.6 99.5999 114.6C71.7999 114.6 44.7999 109.8 19.5999 100.2C15.6999 71.6 11.8999 46.4 8.29994 25.4C36.2999 12.9 67.8999 6.4 99.6999 6.4C131.4 6.4 162.9 12.9 190.9 25.4Z" fill="#1D1D1B"/>
</svg>
